<?xml version="1.0" encoding="UTF-8"?><svg id="Layer_2" xmlns="http://www.w3.org/2000/svg" viewBox="0 0 600 600"><defs><style>.cls-1{fill:#fff;}</style></defs><g id="white_on_black"><path class="cls-1" d="m358.68,397.75h-117.61c-1.04,0-2.04.41-2.77,1.15-.74.74-1.15,1.73-1.15,2.77v15.68c0,1.04.41,2.04,1.15,2.77.74.74,1.73,1.15,2.77,1.15h7.84v11.76c0,1.04.41,2.04,1.15,2.77.74.74,1.73,1.15,2.77,1.15h3.92v113.69c0,2.16,1.75,3.92,3.92,3.92s3.92-1.75,3.92-3.92v-113.69h7.84v113.69c0,2.16,1.76,3.92,3.92,3.92s3.92-1.75,3.92-3.92v-113.69h7.84v113.69c0,2.16,1.75,3.92,3.92,3.92s3.92-1.75,3.92-3.92v-113.69h7.84v113.69c0,2.16,1.76,3.92,3.92,3.92s3.92-1.75,3.92-3.92v-113.69h7.84v113.69c0,2.16,1.76,3.92,3.92,3.92s3.92-1.75,3.92-3.92v-113.69h7.84v113.69c0,2.16,1.75,3.92,3.92,3.92s3.92-1.75,3.92-3.92v-113.69h3.92c1.04,0,2.04-.41,2.77-1.15.74-.74,1.15-1.73,1.15-2.77v-11.76h7.84c1.04,0,2.04-.41,2.77-1.15.74-.74,1.15-1.73,1.15-2.77v-15.68c0-1.04-.41-2.04-1.15-2.77-.74-.74-1.73-1.15-2.77-1.15h0Zm-15.68,31.36h-86.24v-7.84h86.24v7.84Zm11.76-15.68h-109.76v-7.84h109.76v7.84Z"/><path class="cls-1" d="m500.36,397.75h-117.61c-1.04,0-2.04.41-2.77,1.15-.74.74-1.15,1.73-1.15,2.77v15.68c0,1.04.41,2.04,1.15,2.77.74.74,1.73,1.15,2.77,1.15h7.84v11.76c0,1.04.41,2.04,1.15,2.77.74.74,1.73,1.15,2.77,1.15h3.92v113.69c0,2.16,1.75,3.92,3.92,3.92s3.92-1.75,3.92-3.92v-113.69h7.84v113.69c0,2.16,1.76,3.92,3.92,3.92s3.92-1.75,3.92-3.92v-113.69h7.84v86.48c0,2.16,1.75,3.92,3.92,3.92s3.92-1.75,3.92-3.92v-86.48h7.84v86.48c0,2.16,1.76,3.92,3.92,3.92s3.92-1.75,3.92-3.92v-86.48h7.84v59.26c0,2.16,1.76,3.92,3.92,3.92s3.92-1.75,3.92-3.92v-59.26h7.84v59.26c0,2.16,1.75,3.92,3.92,3.92s3.92-1.75,3.92-3.92v-59.26h3.92c1.04,0,2.04-.41,2.77-1.15.74-.74,1.15-1.73,1.15-2.77v-11.76h7.84c1.04,0,2.04-.41,2.77-1.15.74-.74,1.15-1.73,1.15-2.77v-15.68c0-1.04-.41-2.04-1.15-2.77-.74-.74-1.73-1.15-2.77-1.15h0Zm-15.68,31.36h-86.24v-7.84h86.24v7.84Zm11.76-15.68h-109.76v-7.84h109.76v7.84Z"/><path class="cls-1" d="m99.39,397.75c-1.04,0-2.04.41-2.77,1.15-.74.74-1.15,1.73-1.15,2.77v15.68c0,1.04.41,2.04,1.15,2.77.74.74,1.73,1.15,2.77,1.15h7.84v11.76c0,1.04.41,2.04,1.15,2.77.74.74,1.73,1.15,2.77,1.15h3.92v59.26c0,2.16,1.75,3.92,3.92,3.92,2.17,0,3.92-1.75,3.92-3.92v-59.26h7.84v59.26c0,2.16,1.76,3.92,3.92,3.92s3.92-1.75,3.92-3.92v-59.26h7.84v86.48c0,2.16,1.75,3.92,3.92,3.92s3.92-1.75,3.92-3.92v-86.48h7.84v86.48c0,2.16,1.75,3.92,3.92,3.92s3.92-1.75,3.92-3.92v-86.48h7.84v113.69c0,2.16,1.76,3.92,3.92,3.92s3.92-1.75,3.92-3.92v-113.69h7.84v113.69c0,2.16,1.75,3.92,3.92,3.92s3.92-1.75,3.92-3.92v-113.69h3.92c1.04,0,2.04-.41,2.77-1.15.74-.74,1.15-1.73,1.15-2.77v-11.76h7.84c1.04,0,2.04-.41,2.77-1.15.74-.74,1.15-1.73,1.15-2.77v-15.68c0-1.04-.41-2.04-1.15-2.77-.74-.74-1.73-1.15-2.77-1.15h-117.61,0Zm15.68,23.52h86.24v7.84h-86.24v-7.84Zm-11.76-15.68h109.76v7.84h-109.76v-7.84Z"/><path class="cls-1" d="m490.92,168.73H108.89c-2.02,0-3.79-1.35-4.34-3.29-.54-1.95.28-4.02,2.01-5.06l191.02-115.1c1.43-.86,3.22-.86,4.64,0l191.02,115.1c1.73,1.04,2.55,3.11,2.01,5.06-.54,1.95-2.31,3.29-4.34,3.29Zm-365.84-9h349.66l-174.83-105.34-174.83,105.34Z"/><rect class="cls-1" x="109.34" y="188.76" width="381.96" height="9"/><path class="cls-1" d="m109.25,197.87c-14.52,0-26.33-11.81-26.33-26.33s11.81-26.33,26.33-26.33c2.49,0,4.5,2.01,4.5,4.5s-2.01,4.5-4.5,4.5c-9.56,0-17.33,7.77-17.33,17.33s7.77,17.33,17.33,17.33c2.49,0,4.5,2.01,4.5,4.5s-2.01,4.5-4.5,4.5Z"/><path class="cls-1" d="m490.49,197.87c-2.49,0-4.5-2.01-4.5-4.5s2.01-4.5,4.5-4.5c9.56,0,17.33-7.77,17.33-17.33s-7.77-17.33-17.33-17.33c-2.49,0-4.5-2.01-4.5-4.5s2.01-4.5,4.5-4.5c14.52,0,26.33,11.81,26.33,26.33s-11.81,26.33-26.33,26.33Z"/><path class="cls-1" d="m491.31,183.25H109.34c-2.49,0-4.5-2.01-4.5-4.5s2.01-4.5,4.5-4.5h381.96c2.49,0,4.5,2.01,4.5,4.5s-2.01,4.5-4.5,4.5Z"/><path class="cls-1" d="m284.29,146.99h1.9c3.34,0,6.59-1.08,9.33-3.06,2.74-1.98,4.84-4.79,6.01-8.04l3.43-9.61,4.06,12.12h0c1.27,3.75,4.16,6.65,7.8,7.84,3.64,1.18,7.61.51,10.7-1.82,3.09-2.33,4.94-6.05,5-10.02v-10.08h-7.26v10.05c-.05,1.58-.84,3.04-2.13,3.95-1.29.91-2.93,1.17-4.43.7-1.5-.47-2.7-1.62-3.24-3.1l-7.27-20.8,12.09-32.52h-8.08l-7.93,21.32-3.89-11.14c-1.79-5.12-5.91-9.09-11.09-10.68-5.18-1.6-10.81-.64-15.17,2.58-4.36,3.22-6.94,8.32-6.94,13.75v31.5c0,4.53,1.8,8.88,5.01,12.08,3.2,3.2,7.54,5.01,12.07,5.01h0Zm-9.82-48.15c0-3.01,1.41-5.85,3.83-7.64,2.42-1.79,5.54-2.34,8.42-1.46,2.88.88,5.17,3.07,6.17,5.91l6.89,19.76-6.75,18.15c-.68,1.81-1.89,3.37-3.48,4.47-1.59,1.1-3.47,1.69-5.41,1.7h-.19c-.83,0-1.67-.08-2.47-.31-4.35-1.26-7-5.08-7.01-9.17v-31.41Z"/><path class="cls-1" d="m189.39,378.54c.26-12.46.52-25.16.52-37.62,0-5.77-.26-33.7-.26-40.16h-5.49c-6.53-.23-13.32-.23-19.85-.23-15.93,0-21.68.23-39.18.69v7.16c0,18.93,1.31,60.24,1.57,69.71l-1.57,1.38c-11.49,0-14.11,0-26.38.46l-1.57-1.38c.26-14.77.52-29.55.52-44.32,0-38.78,0-77.56-1.83-116.56l1.57-1.15c12.02,0,14.89,0,26.38-.69l1.57,1.38c0,9.23-.26,54.7-.26,64.86,13.06.23,47.54.23,64.52-.46-.52-31.16-.78-36.47-1.83-63.94l1.57-1.15c10.71,0,14.11,0,26.64-.69l1.57,1.38c-.26,7.85-.26,22.39-.26,40.39,0,40.16.26,80.33,1.83,120.49l-1.57,1.38c-11.76,0-14.37-.23-26.64.46l-1.57-1.38Z"/><path class="cls-1" d="m267.38,379.12c-11.23,0-13.84,0-25.86.46l-1.57-1.38c.26-12,.52-23.77.52-46.16,0-36.24,0-78.71-2.09-114.49l1.57-1.38c12.02,0,15.15-.23,25.86-.46l1.57,1.15c-.26,18-.26,24.01-.52,72.48l29.78-37.85c3.92-5.31,8.1-10.62,12.28-15.7,9.14-11.77,9.66-12.23,13.84-18.7l2.09-.92h10.71c5.22,0,10.19,0,15.93-.23l.78,1.38c-5.75,6.46-7.84,8.77-33.7,39.47l-26.12,31.62,15.15,21.24c17.24,22.85,34.48,45.7,53.29,67.63l-.78,1.38c-4.7,0-9.4.23-14.11.23-5.75.23-11.49.46-16.98.69l-2.09-.92c-5.49-8.77-7.31-11.31-24.03-33.01-4.44-6-8.88-12-13.32-18l-22.73-30.01c.52,32.08,1.04,55.63,2.09,80.09l-1.57,1.38Z"/><path class="cls-1" d="m398.08,247.44l1.31,58.4c.78,38.55,1.04,54.24,2.09,72.25l-1.57,1.38c-10.19,0-12.02,0-21.16.46l-1.83-1.38c0-2.31.26-4.62.26-6.93.26-11.31.26-22.39.26-33.7,0-39.47-.52-80.56-2.09-120.03l1.57-1.38c14.11,0,17.24,0,29.26-.46l1.83,1.15c11.23,20.08,22.73,39.93,34.22,60.01l39.44,69.71-1.57-60.94c-.52-38.78-1.04-54.94-1.83-68.09l1.57-1.38c10.19,0,11.49-.23,21.16-.46l1.57,1.15c-.26,2.31-.26,4.39-.26,6.46-.26,13.16-.26,26.54-.26,39.93,0,25.16.52,75.94,1.83,114.49l-1.57,1.38c-14.11-.23-17.24,0-28.47.46l-2.09-1.15c-6.53-11.77-15.15-26.77-22.73-40.39l-50.94-90.94Z"/></g></svg>